<svg width="1252" height="305" viewBox="0 0 1252 305" fill="none" xmlns="http://www.w3.org/2000/svg">
<circle cx="99" cy="141" r="82.3571" stroke="#998E37" stroke-width="5"/>
<circle cx="99" cy="141" r="82.3571" stroke="#998E37" stroke-width="5"/>
<circle cx="99" cy="141" r="96.5" stroke="#998E37" stroke-width="5"/>
<circle cx="99" cy="141" r="96.5" stroke="#998E37" stroke-width="5"/>
<path d="M173.486 173.529L24.5143 112.243M138.6 211.714L100.886 58.5M157.457 84.4286L18.8572 149.957" stroke="#998E37" stroke-width="5"/>
<circle cx="64.5858" cy="128.271" r="11.7857" fill="#998E37"/>
<circle cx="112.671" cy="104.7" r="11.7857" fill="#998E37"/>
<circle cx="123.986" cy="152.786" r="11.7857" fill="#998E37"/>
<path d="M266.52 198.38C266.407 198.38 264.537 198.267 260.91 198.04C257.397 197.927 253.317 197.473 248.67 196.68C244.817 196 241.303 195.547 238.13 195.32C235.07 194.98 233.2 194.81 232.52 194.81C232.407 185.403 231.897 174.013 230.99 160.64C231.897 160.527 232.803 160.47 233.71 160.47C234.73 160.47 235.637 160.47 236.43 160.47C238.583 170.443 242.153 178.15 247.14 183.59C252.24 189.03 258.927 191.75 267.2 191.75C274.567 191.75 280.573 189.767 285.22 185.8C289.867 181.72 292.19 176.393 292.19 169.82C292.19 164.833 290.887 160.753 288.28 157.58C285.787 154.407 282.443 151.743 278.25 149.59C274.17 147.323 269.807 145.227 265.16 143.3C259.72 140.92 254.507 138.427 249.52 135.82C244.647 133.1 240.623 129.643 237.45 125.45C234.277 121.257 232.69 115.817 232.69 109.13C232.69 101.99 234.447 95.87 237.96 90.77C241.587 85.67 246.403 81.8167 252.41 79.21C258.417 76.49 265.047 75.13 272.3 75.13C274.567 75.13 276.89 75.2433 279.27 75.47C281.763 75.6967 284.313 76.0367 286.92 76.49C290.207 76.9433 292.7 77.2267 294.4 77.34C296.213 77.4533 297.403 77.51 297.97 77.51C298.31 77.51 298.933 77.51 299.84 77.51C300.747 77.3967 301.483 77.2833 302.05 77.17C302.277 82.1567 302.503 87.3133 302.73 92.64C302.957 97.9667 303.297 103.52 303.75 109.3C301.483 109.64 299.613 109.753 298.14 109.64C295.533 99.78 292.303 92.6967 288.45 88.39C284.597 83.97 279.1 81.76 271.96 81.76C265.727 81.76 260.4 83.46 255.98 86.86C251.56 90.1467 249.35 95.0767 249.35 101.65C249.35 105.163 250.143 108.28 251.73 111C253.43 113.72 256.207 116.327 260.06 118.82C263.913 121.313 269.24 123.977 276.04 126.81C279.78 128.397 283.52 130.153 287.26 132.08C291.113 134.007 294.627 136.33 297.8 139.05C300.973 141.657 303.523 144.887 305.45 148.74C307.377 152.48 308.34 156.957 308.34 162.17C308.34 169.877 306.413 176.45 302.56 181.89C298.707 187.217 293.607 191.297 287.26 194.13C281.027 196.963 274.113 198.38 266.52 198.38ZM365.269 95.87V174.92C365.269 178.433 365.382 181.21 365.609 183.25C365.835 185.29 366.459 186.763 367.479 187.67C368.499 188.577 370.142 189.257 372.409 189.71C374.675 190.05 377.905 190.39 382.099 190.73C382.439 192.543 382.439 194.357 382.099 196.17C379.832 196.17 377.055 196.113 373.769 196C370.482 196 367.195 196 363.909 196C360.735 195.887 358.072 195.83 355.919 195.83C353.765 195.83 351.045 195.887 347.759 196C344.585 196 341.355 196 338.069 196C334.895 196.113 332.062 196.17 329.569 196.17C329.229 194.47 329.229 192.657 329.569 190.73C335.009 190.163 338.919 189.653 341.299 189.2C343.679 188.633 345.152 187.5 345.719 185.8C346.285 184.1 346.569 181.21 346.569 177.13V98.08C346.569 93.32 346.285 89.92 345.719 87.88C345.152 85.84 343.679 84.5367 341.299 83.97C338.919 83.29 335.009 82.7233 329.569 82.27C329.342 80.57 329.342 78.7567 329.569 76.83C331.949 76.83 334.782 76.8867 338.069 77C341.469 77 344.812 77.0567 348.099 77.17C351.385 77.17 354.105 77.17 356.259 77.17C358.412 77.17 361.075 77.17 364.249 77.17C367.422 77.0567 370.652 77 373.939 77C377.225 76.8867 379.945 76.83 382.099 76.83C382.439 78.53 382.439 80.3433 382.099 82.27C376.772 82.7233 372.919 83.2333 370.539 83.8C368.159 84.3667 366.685 85.5 366.119 87.2C365.552 88.9 365.269 91.79 365.269 95.87ZM427.849 77.17C431.362 77.17 435.385 77.1133 439.919 77C444.452 76.8867 448.192 76.83 451.139 76.83C473.465 76.83 490.352 81.59 501.799 91.11C513.245 100.63 518.969 114.513 518.969 132.76C518.969 146.133 516.022 157.58 510.129 167.1C504.349 176.507 496.302 183.703 485.989 188.69C475.675 193.677 463.832 196.17 450.459 196.17C448.872 196.17 446.662 196.113 443.829 196C440.995 196 438.105 196 435.159 196C432.212 195.887 429.719 195.83 427.679 195.83C425.865 195.83 423.315 195.887 420.029 196C416.742 196 413.399 196 409.999 196C406.599 196.113 403.765 196.17 401.499 196.17C401.272 194.47 401.272 192.657 401.499 190.73C406.825 190.163 410.622 189.653 412.889 189.2C415.155 188.633 416.572 187.5 417.139 185.8C417.705 184.1 417.989 181.21 417.989 177.13V98.08C417.989 93.32 417.705 89.92 417.139 87.88C416.572 85.84 415.099 84.5367 412.719 83.97C410.452 83.29 406.712 82.7233 401.499 82.27C401.272 80.57 401.272 78.7567 401.499 76.83C403.879 76.83 406.712 76.8867 409.999 77C413.285 77 416.515 77.0567 419.689 77.17C422.975 77.17 425.695 77.17 427.849 77.17ZM436.689 84.65V174.92C436.689 177.753 436.689 180.133 436.689 182.06C436.689 183.987 436.745 185.573 436.859 186.82C442.299 188.407 447.909 189.2 453.689 189.2C463.549 189.2 471.765 186.877 478.339 182.23C485.025 177.583 490.012 171.237 493.299 163.19C496.699 155.143 498.399 146.02 498.399 135.82C498.399 119.953 494.319 107.317 486.159 97.91C478.112 88.5033 466.155 83.8 450.289 83.8C447.455 83.8 444.735 83.9133 442.129 84.14C439.635 84.3667 437.822 84.5367 436.689 84.65ZM541.649 196.17C541.422 194.47 541.422 192.657 541.649 190.73C546.976 190.163 550.772 189.653 553.039 189.2C555.306 188.633 556.722 187.5 557.289 185.8C557.856 183.987 558.139 181.097 558.139 177.13V98.08C558.139 93.32 557.856 89.92 557.289 87.88C556.722 85.84 555.249 84.5367 552.869 83.97C550.602 83.29 546.862 82.7233 541.649 82.27C541.422 80.57 541.422 78.7567 541.649 76.83C544.596 76.83 547.146 76.8867 549.299 77C551.566 77 553.832 77 556.099 77C558.366 77 561.086 77.0567 564.259 77.17C567.432 77.17 571.456 77.17 576.329 77.17C585.282 77.17 593.669 77.17 601.489 77.17C609.309 77.0567 615.826 77 621.039 77C626.252 76.8867 629.312 76.83 630.219 76.83C630.672 81.0233 631.182 85.33 631.749 89.75C632.429 94.17 633.166 98.8733 633.959 103.86C632.032 104.087 630.162 104.087 628.349 103.86C626.989 100.46 625.402 97.4567 623.589 94.85C621.776 92.2433 619.906 90.26 617.979 88.9C615.826 87.3133 613.219 86.1233 610.159 85.33C607.212 84.5367 603.529 84.14 599.109 84.14H576.839V130.55H586.189C591.629 130.55 595.766 130.21 598.599 129.53C601.432 128.737 603.529 127.093 604.889 124.6C606.249 121.993 607.326 117.913 608.119 112.36C610.159 112.02 612.086 112.02 613.899 112.36C613.786 117.347 613.672 121.2 613.559 123.92C613.559 126.527 613.559 128.453 613.559 129.7C613.559 130.947 613.559 131.967 613.559 132.76C613.559 133.44 613.559 134.007 613.559 134.46L613.899 156.9C612.199 157.24 610.272 157.24 608.119 156.9C607.439 150.893 606.419 146.587 605.059 143.98C603.699 141.373 601.659 139.73 598.939 139.05C596.332 138.37 592.592 138.03 587.719 138.03H576.839V174.92C576.839 178.773 576.839 181.89 576.839 184.27C576.952 186.537 577.066 188.01 577.179 188.69H600.469C606.136 188.69 610.669 188.237 614.069 187.33C617.582 186.31 620.472 184.837 622.739 182.91C624.326 181.663 626.196 179.51 628.349 176.45C630.502 173.277 632.542 169.65 634.469 165.57C636.282 165.343 638.039 165.343 639.739 165.57C638.606 171.917 637.642 177.64 636.849 182.74C636.056 187.84 635.376 192.26 634.809 196C629.709 196 624.156 196 618.149 196C612.142 196 606.136 196 600.129 196C594.122 195.887 588.626 195.83 583.639 195.83C578.766 195.83 574.856 195.83 571.909 195.83C566.582 195.83 562.219 195.887 558.819 196C555.532 196 552.586 196 549.979 196C547.486 196.113 544.709 196.17 541.649 196.17ZM698.499 142.28L694.079 141.77V174.92C694.079 178.433 694.193 181.21 694.419 183.25C694.646 185.29 695.213 186.763 696.119 187.67C697.139 188.577 698.726 189.257 700.879 189.71C703.146 190.05 706.263 190.39 710.229 190.73C710.569 192.543 710.569 194.357 710.229 196.17C707.963 196.17 705.243 196.113 702.069 196C698.896 196 695.723 196 692.549 196C689.376 195.887 686.713 195.83 684.559 195.83C682.519 195.83 679.856 195.887 676.569 196C673.283 196 669.996 196 666.709 196C663.423 196.113 660.646 196.17 658.379 196.17C658.039 194.47 658.039 192.657 658.379 190.73C663.819 190.277 667.729 189.823 670.109 189.37C672.489 188.803 673.963 187.67 674.529 185.97C675.096 184.157 675.379 181.21 675.379 177.13V97.91C675.379 93.2633 675.039 89.92 674.359 87.88C673.793 85.84 672.319 84.48 669.939 83.8C667.559 83.12 663.706 82.61 658.379 82.27C658.039 80.57 658.039 78.7567 658.379 76.83C660.533 76.83 663.309 76.8867 666.709 77C670.223 77 673.623 77.0567 676.909 77.17C680.309 77.17 682.803 77.17 684.389 77.17C686.429 77.17 689.036 77.17 692.209 77.17C695.496 77.0567 698.726 76.9433 701.899 76.83C705.186 76.7167 707.736 76.66 709.549 76.66C716.689 76.66 723.319 77.6233 729.439 79.55C735.673 81.4767 740.659 84.65 744.399 89.07C748.253 93.3767 750.179 99.2133 750.179 106.58C750.179 113.833 747.969 120.293 743.549 125.96C739.243 131.627 732.386 135.877 722.979 138.71V139.22C724.679 140.58 726.606 142.847 728.759 146.02L746.609 171.86C749.556 176.053 751.993 179.34 753.919 181.72C755.959 184.1 757.886 185.913 759.699 187.16C761.513 188.293 763.609 189.087 765.989 189.54C768.369 189.993 771.373 190.39 774.999 190.73C775.339 192.543 775.339 194.357 774.999 196.17C772.846 196.17 770.183 196.113 767.009 196C763.836 196 760.776 196 757.829 196C754.883 195.887 752.503 195.83 750.689 195.83C748.876 195.83 747.289 195.887 745.929 196C744.569 196 742.983 196 741.169 196L709.719 149.59C707.793 146.643 706.093 144.773 704.619 143.98C703.146 143.073 701.106 142.507 698.499 142.28ZM694.079 134.8C695.553 135.027 696.856 135.197 697.989 135.31C699.123 135.423 700.199 135.48 701.219 135.48C710.059 135.48 717.029 133.213 722.129 128.68C727.343 124.147 729.949 117.46 729.949 108.62C729.949 100.573 727.683 94.3967 723.149 90.09C718.729 85.7833 712.156 83.63 703.429 83.63C702.296 83.63 700.879 83.6867 699.179 83.8C697.593 83.9133 695.893 84.0833 694.079 84.31V134.8ZM785.26 196.17C785.034 194.47 785.034 192.657 785.26 190.73C790.587 190.163 794.384 189.653 796.65 189.2C798.917 188.633 800.334 187.5 800.9 185.8C801.467 183.987 801.75 181.097 801.75 177.13V98.08C801.75 93.32 801.467 89.92 800.9 87.88C800.334 85.84 798.86 84.5367 796.48 83.97C794.214 83.29 790.474 82.7233 785.26 82.27C785.034 80.57 785.034 78.7567 785.26 76.83C788.207 76.83 790.757 76.8867 792.91 77C795.177 77 797.444 77 799.71 77C801.977 77 804.697 77.0567 807.87 77.17C811.044 77.17 815.067 77.17 819.94 77.17C828.894 77.17 837.28 77.17 845.1 77.17C852.92 77.0567 859.437 77 864.65 77C869.864 76.8867 872.924 76.83 873.83 76.83C874.284 81.0233 874.794 85.33 875.36 89.75C876.04 94.17 876.777 98.8733 877.57 103.86C875.644 104.087 873.774 104.087 871.96 103.86C870.6 100.46 869.014 97.4567 867.2 94.85C865.387 92.2433 863.517 90.26 861.59 88.9C859.437 87.3133 856.83 86.1233 853.77 85.33C850.824 84.5367 847.14 84.14 842.72 84.14H820.45V130.55H829.8C835.24 130.55 839.377 130.21 842.21 129.53C845.044 128.737 847.14 127.093 848.5 124.6C849.86 121.993 850.937 117.913 851.73 112.36C853.77 112.02 855.697 112.02 857.51 112.36C857.397 117.347 857.284 121.2 857.17 123.92C857.17 126.527 857.17 128.453 857.17 129.7C857.17 130.947 857.17 131.967 857.17 132.76C857.17 133.44 857.17 134.007 857.17 134.46L857.51 156.9C855.81 157.24 853.884 157.24 851.73 156.9C851.05 150.893 850.03 146.587 848.67 143.98C847.31 141.373 845.27 139.73 842.55 139.05C839.944 138.37 836.204 138.03 831.33 138.03H820.45V174.92C820.45 178.773 820.45 181.89 820.45 184.27C820.564 186.537 820.677 188.01 820.79 188.69H844.08C849.747 188.69 854.28 188.237 857.68 187.33C861.194 186.31 864.084 184.837 866.35 182.91C867.937 181.663 869.807 179.51 871.96 176.45C874.114 173.277 876.154 169.65 878.08 165.57C879.894 165.343 881.65 165.343 883.35 165.57C882.217 171.917 881.254 177.64 880.46 182.74C879.667 187.84 878.987 192.26 878.42 196C873.32 196 867.767 196 861.76 196C855.754 196 849.747 196 843.74 196C837.734 195.887 832.237 195.83 827.25 195.83C822.377 195.83 818.467 195.83 815.52 195.83C810.194 195.83 805.83 195.887 802.43 196C799.144 196 796.197 196 793.59 196C791.097 196.113 788.32 196.17 785.26 196.17ZM899.271 76.83C901.537 76.83 904.257 76.8867 907.431 77C910.717 77 913.947 77.0567 917.121 77.17C920.407 77.17 923.127 77.17 925.281 77.17C927.434 77.17 930.097 77.17 933.271 77.17C936.557 77.0567 939.844 77 943.131 77C946.417 76.8867 949.194 76.83 951.461 76.83C951.801 78.53 951.801 80.2867 951.461 82.1C946.247 82.5533 942.451 83.0633 940.071 83.63C937.691 84.1967 936.217 85.33 935.651 87.03C935.084 88.73 934.801 91.62 934.801 95.7V151.29C934.801 163.983 937.521 173.447 942.961 179.68C948.514 185.8 956.561 188.86 967.101 188.86C978.207 188.86 986.594 185.403 992.261 178.49C997.927 171.577 1000.76 160.867 1000.76 146.36V99.78C1000.76 95.8133 1000.59 92.7533 1000.25 90.6C1000.02 88.3333 999.287 86.69 998.041 85.67C996.907 84.65 995.151 83.97 992.771 83.63C990.391 83.1767 987.047 82.7233 982.741 82.27C982.401 80.57 982.401 78.8133 982.741 77C985.801 77 989.484 77.0567 993.791 77.17C998.097 77.2833 1001.55 77.34 1004.16 77.34C1006.99 77.34 1010.51 77.2833 1014.7 77.17C1019.01 77.0567 1022.75 77 1025.92 77C1026.26 78.7 1026.26 80.4567 1025.92 82.27C1020.71 82.8367 1016.91 83.4033 1014.53 83.97C1012.15 84.5367 1010.62 85.7833 1009.94 87.71C1009.37 89.6367 1009.09 92.9233 1009.09 97.57V149.93C1009.09 165.003 1005.18 176.79 997.361 185.29C989.541 193.677 977.697 197.87 961.831 197.87C952.764 197.87 944.774 196.397 937.861 193.45C931.061 190.503 925.734 185.97 921.881 179.85C918.027 173.617 916.101 165.797 916.101 156.39V97.91C916.101 93.15 915.817 89.75 915.251 87.71C914.684 85.67 913.211 84.3667 910.831 83.8C908.451 83.12 904.597 82.5533 899.271 82.1C898.931 80.4 898.931 78.6433 899.271 76.83ZM1117.65 170.16L1154.03 77C1156.41 77.1133 1158.91 77.17 1161.51 77.17C1164.12 77.17 1166.33 77.17 1168.14 77.17C1169.05 77.17 1170.69 77.17 1173.07 77.17C1175.57 77.0567 1178.23 77 1181.06 77C1184.01 77 1186.67 77 1189.05 77C1191.55 76.8867 1193.25 76.83 1194.15 76.83C1194.49 78.53 1194.49 80.2867 1194.15 82.1H1193.81C1188.6 82.6667 1184.8 83.2333 1182.42 83.8C1180.04 84.2533 1178.57 85.3867 1178 87.2C1177.55 88.9 1177.32 91.7333 1177.32 95.7L1178.68 175.09C1178.68 178.603 1178.8 181.38 1179.02 183.42C1179.25 185.46 1179.87 186.933 1180.89 187.84C1181.91 188.747 1183.56 189.427 1185.82 189.88C1188.09 190.22 1191.32 190.56 1195.51 190.9C1195.85 192.6 1195.85 194.357 1195.51 196.17C1194.61 196.17 1192.91 196.113 1190.41 196C1188.03 196 1185.37 196 1182.42 196C1179.59 196 1176.93 196 1174.43 196C1172.05 195.887 1170.41 195.83 1169.5 195.83C1168.6 195.83 1166.95 195.887 1164.57 196C1162.19 196 1159.59 196 1156.75 196C1153.92 196 1151.31 196 1148.93 196C1146.55 196.113 1144.91 196.17 1144 196.17C1143.89 194.47 1143.89 192.713 1144 190.9H1144.34C1149.33 190.333 1152.96 189.823 1155.22 189.37C1157.49 188.803 1158.85 187.67 1159.3 185.97C1159.87 184.157 1160.15 181.267 1160.15 177.3L1158.62 86.18L1115.78 195.83C1114.99 196.17 1113.74 196.397 1112.04 196.51C1110.34 196.623 1108.87 196.68 1107.62 196.68L1067.33 89.75L1064.61 177.3C1064.5 181.04 1064.67 183.76 1065.12 185.46C1065.58 187.047 1066.94 188.18 1069.2 188.86C1071.47 189.54 1075.27 190.22 1080.59 190.9C1081.05 192.713 1081.05 194.47 1080.59 196.17C1079.46 196.17 1077.48 196.113 1074.64 196C1071.92 196 1069.15 196 1066.31 196C1063.59 195.887 1061.61 195.83 1060.36 195.83C1059.68 195.83 1058.32 195.887 1056.28 196C1054.36 196 1052.2 196 1049.82 196C1047.44 196 1045.23 196 1043.19 196C1041.27 196.113 1039.96 196.17 1039.28 196.17C1039.06 194.357 1039.06 192.6 1039.28 190.9C1044.61 190.22 1048.41 189.54 1050.67 188.86C1052.94 188.18 1054.36 186.82 1054.92 184.78C1055.6 182.74 1056 179.51 1056.11 175.09L1059.34 95.7C1059.57 91.7333 1059.4 88.9 1058.83 87.2C1058.27 85.5 1056.74 84.3667 1054.24 83.8C1051.86 83.12 1047.9 82.5533 1042.34 82.1C1042.23 80.2867 1042.23 78.53 1042.34 76.83C1046.2 76.83 1050.16 76.8867 1054.24 77C1058.32 77.1133 1062.86 77.17 1067.84 77.17C1069.54 77.17 1071.81 77.17 1074.64 77.17C1077.48 77.17 1080.08 77.1133 1082.46 77L1117.65 170.16ZM1248.42 183.32C1248.42 185.987 1247.97 188.44 1247.06 190.68C1246.18 192.92 1244.93 194.853 1243.3 196.48C1241.67 198.107 1239.74 199.36 1237.5 200.24C1235.29 201.147 1232.85 201.6 1230.18 201.6C1227.51 201.6 1225.06 201.147 1222.82 200.24C1220.58 199.36 1218.65 198.093 1217.02 196.44C1215.39 194.813 1214.13 192.893 1213.22 190.68C1212.34 188.44 1211.9 185.987 1211.9 183.32C1211.9 180.68 1212.34 178.253 1213.22 176.04C1214.13 173.8 1215.39 171.88 1217.02 170.28C1218.65 168.653 1220.58 167.4 1222.82 166.52C1225.06 165.613 1227.51 165.16 1230.18 165.16C1232.85 165.16 1235.29 165.613 1237.5 166.52C1239.74 167.4 1241.67 168.653 1243.3 170.28C1244.93 171.88 1246.18 173.8 1247.06 176.04C1247.97 178.253 1248.42 180.68 1248.42 183.32ZM1246.14 183.32C1246.14 180.12 1245.47 177.307 1244.14 174.88C1242.83 172.427 1240.98 170.507 1238.58 169.12C1236.21 167.733 1233.41 167.04 1230.18 167.04C1226.95 167.04 1224.14 167.733 1221.74 169.12C1219.34 170.507 1217.47 172.427 1216.14 174.88C1214.81 177.307 1214.14 180.12 1214.14 183.32C1214.14 186.547 1214.81 189.4 1216.14 191.88C1217.47 194.333 1219.34 196.24 1221.74 197.6C1224.14 198.987 1226.95 199.68 1230.18 199.68C1233.41 199.68 1236.21 198.987 1238.58 197.6C1240.98 196.24 1242.83 194.333 1244.14 191.88C1245.47 189.4 1246.14 186.547 1246.14 183.32ZM1237.98 186.88C1237.87 187.76 1237.78 188.653 1237.7 189.56C1237.62 190.467 1237.54 191.387 1237.46 192.32C1236.63 192.64 1235.89 192.907 1235.22 193.12C1234.55 193.307 1233.98 193.467 1233.5 193.6C1233.02 193.707 1232.51 193.787 1231.98 193.84C1231.47 193.867 1230.95 193.88 1230.42 193.88C1228.29 193.88 1226.41 193.467 1224.78 192.64C1223.15 191.787 1221.87 190.587 1220.94 189.04C1220.03 187.493 1219.58 185.64 1219.58 183.48C1219.58 181.4 1220.05 179.56 1220.98 177.96C1221.91 176.36 1223.18 175.107 1224.78 174.2C1226.41 173.267 1228.26 172.8 1230.34 172.8C1231.62 172.8 1232.9 172.987 1234.18 173.36C1234.79 173.52 1235.31 173.64 1235.74 173.72C1236.17 173.773 1236.49 173.8 1236.7 173.8C1236.83 173.8 1236.97 173.8 1237.1 173.8C1237.26 173.773 1237.41 173.747 1237.54 173.72C1237.54 174.627 1237.57 175.587 1237.62 176.6C1237.67 177.613 1237.74 178.667 1237.82 179.76C1237.63 179.787 1237.43 179.813 1237.22 179.84C1237.01 179.84 1236.79 179.84 1236.58 179.84C1235.83 176.133 1233.85 174.28 1230.62 174.28C1229.02 174.28 1227.71 174.72 1226.7 175.6C1225.71 176.453 1224.98 177.56 1224.5 178.92C1224.05 180.28 1223.82 181.733 1223.82 183.28C1223.82 184.88 1224.06 186.373 1224.54 187.76C1225.05 189.147 1225.82 190.267 1226.86 191.12C1227.9 191.973 1229.25 192.4 1230.9 192.4C1232.39 192.4 1233.63 191.947 1234.62 191.04C1235.63 190.133 1236.34 188.733 1236.74 186.84C1237.17 186.787 1237.58 186.8 1237.98 186.88Z" fill="#1D1D1D"/>
</svg>
